<svg width="171" height="90" viewBox="0 0 171 90" fill="none" xmlns="http://www.w3.org/2000/svg">
<rect width="171" height="90" fill="white"/>
<path d="M8 44.8897C8 41.7199 9.61895 39.299 11.0695 36.9626C14.5433 31.3678 18.2683 27.4734 23.7931 27.8463C30.1234 28.2737 35.3023 33.0578 37.3183 41.2033C39.2874 49.1593 41.109 62.091 38.0868 69.9939C35.399 77.0221 29.3806 76.3825 26.4317 69.7494C23.4681 63.083 26.932 54.6781 30.0326 49.5318C31.6225 46.8929 33.5743 42.3692 36.1638 41.3584C38.0225 40.6329 40.297 40.7511 42.2179 40.7511C46.4249 40.7511 49.5475 42.9174 51.6373 47.5747C53.1704 50.9913 55.1196 55.0458 58.606 53.6788C63.8137 51.6368 64.3851 41.3636 63.7926 35.5729C63.2388 30.1601 60.7945 26.4267 59.8245 21.2988C59.0083 16.9844 60.1792 12.063 64.0702 13.1538C76.8029 16.7229 71.0985 38.8359 71.0985 50.6665C71.0985 54.8806 71.8103 63.3934 76.5541 61.8881C81.1382 60.4334 85.2524 51.1654 87 45.9097" stroke="#1E1E1E" stroke-width="8" stroke-linecap="round" stroke-linejoin="round"/>
<ellipse cx="118.5" cy="41" rx="15.5" ry="13" fill="#D9D9D9"/>
</svg>
